<svg xmlns="http://www.w3.org/2000/svg" xmlns:xlink="http://www.w3.org/1999/xlink" width="500" zoomAndPan="magnify" viewBox="0 0 375 374.999991" height="500" preserveAspectRatio="xMidYMid meet" version="1.0"><defs><clipPath id="589635b22c"><path d="M 36.125 36.125 L 339 36.125 L 339 339 L 36.125 339 Z M 36.125 36.125 " clip-rule="nonzero"/></clipPath></defs><g clip-path="url(#589635b22c)"><path fill="#ffffff" d="M 187.496094 338.867188 C 185.019531 338.867188 182.542969 338.804688 180.066406 338.683594 C 177.59375 338.5625 175.125 338.378906 172.660156 338.136719 C 170.191406 337.894531 167.734375 337.589844 165.285156 337.226562 C 162.835938 336.863281 160.394531 336.441406 157.964844 335.957031 C 155.535156 335.476562 153.117188 334.933594 150.714844 334.332031 C 148.3125 333.726562 145.925781 333.066406 143.554688 332.347656 C 141.183594 331.628906 138.832031 330.851562 136.5 330.019531 C 134.167969 329.183594 131.855469 328.292969 129.566406 327.34375 C 127.28125 326.394531 125.015625 325.390625 122.777344 324.332031 C 120.535156 323.273438 118.324219 322.160156 116.140625 320.992188 C 113.953125 319.824219 111.800781 318.605469 109.675781 317.332031 C 107.550781 316.058594 105.457031 314.730469 103.398438 313.355469 C 101.339844 311.980469 99.3125 310.554688 97.324219 309.078125 C 95.335938 307.601562 93.382812 306.078125 91.464844 304.507812 C 89.550781 302.933594 87.675781 301.316406 85.839844 299.652344 C 84.003906 297.992188 82.210938 296.28125 80.460938 294.53125 C 78.707031 292.777344 77 290.984375 75.335938 289.148438 C 73.671875 287.316406 72.054688 285.4375 70.484375 283.523438 C 68.914062 281.609375 67.390625 279.65625 65.914062 277.667969 C 64.4375 275.675781 63.011719 273.652344 61.636719 271.59375 C 60.257812 269.53125 58.933594 267.441406 57.660156 265.316406 C 56.386719 263.191406 55.164062 261.035156 54 258.851562 C 52.832031 256.667969 51.71875 254.453125 50.65625 252.214844 C 49.597656 249.976562 48.59375 247.710938 47.648438 245.421875 C 46.699219 243.132812 45.808594 240.824219 44.972656 238.492188 C 44.136719 236.160156 43.363281 233.808594 42.640625 231.4375 C 41.921875 229.066406 41.261719 226.679688 40.660156 224.277344 C 40.058594 221.871094 39.515625 219.457031 39.03125 217.027344 C 38.550781 214.597656 38.125 212.15625 37.761719 209.707031 C 37.398438 207.253906 37.097656 204.796875 36.851562 202.332031 C 36.609375 199.867188 36.429688 197.398438 36.308594 194.921875 C 36.183594 192.449219 36.125 189.972656 36.125 187.496094 C 36.125 185.019531 36.183594 182.542969 36.308594 180.066406 C 36.429688 177.59375 36.609375 175.125 36.851562 172.660156 C 37.097656 170.191406 37.398438 167.734375 37.761719 165.285156 C 38.125 162.835938 38.550781 160.394531 39.03125 157.964844 C 39.515625 155.535156 40.058594 153.117188 40.660156 150.714844 C 41.261719 148.3125 41.921875 145.925781 42.640625 143.554688 C 43.363281 141.183594 44.136719 138.832031 44.972656 136.5 C 45.808594 134.167969 46.699219 131.855469 47.648438 129.566406 C 48.59375 127.28125 49.597656 125.015625 50.65625 122.777344 C 51.71875 120.535156 52.832031 118.324219 54 116.140625 C 55.164062 113.953125 56.386719 111.800781 57.660156 109.675781 C 58.933594 107.550781 60.257812 105.457031 61.636719 103.398438 C 63.011719 101.339844 64.4375 99.3125 65.914062 97.324219 C 67.390625 95.335938 68.914062 93.382812 70.484375 91.464844 C 72.054688 89.550781 73.671875 87.675781 75.335938 85.839844 C 77 84.003906 78.707031 82.210938 80.460938 80.460938 C 82.210938 78.707031 84.003906 77 85.839844 75.335938 C 87.675781 73.671875 89.550781 72.054688 91.464844 70.484375 C 93.382812 68.914062 95.335938 67.390625 97.324219 65.914062 C 99.3125 64.4375 101.339844 63.011719 103.398438 61.636719 C 105.457031 60.257812 107.550781 58.933594 109.675781 57.660156 C 111.800781 56.386719 113.953125 55.164062 116.140625 54 C 118.324219 52.832031 120.535156 51.71875 122.777344 50.65625 C 125.015625 49.597656 127.28125 48.59375 129.566406 47.648438 C 131.855469 46.699219 134.167969 45.808594 136.5 44.972656 C 138.832031 44.136719 141.183594 43.363281 143.554688 42.640625 C 145.925781 41.921875 148.3125 41.261719 150.714844 40.660156 C 153.117188 40.058594 155.535156 39.515625 157.964844 39.03125 C 160.394531 38.550781 162.835938 38.125 165.285156 37.761719 C 167.734375 37.398438 170.191406 37.097656 172.660156 36.851562 C 175.125 36.609375 177.59375 36.429688 180.066406 36.308594 C 182.542969 36.183594 185.019531 36.125 187.496094 36.125 C 189.972656 36.125 192.449219 36.183594 194.921875 36.308594 C 197.398438 36.429688 199.867188 36.609375 202.332031 36.851562 C 204.796875 37.097656 207.253906 37.398438 209.707031 37.761719 C 212.15625 38.125 214.597656 38.550781 217.027344 39.03125 C 219.457031 39.515625 221.871094 40.058594 224.277344 40.660156 C 226.679688 41.261719 229.066406 41.921875 231.4375 42.640625 C 233.808594 43.363281 236.160156 44.136719 238.492188 44.972656 C 240.824219 45.808594 243.132812 46.699219 245.421875 47.648438 C 247.710938 48.59375 249.976562 49.597656 252.214844 50.65625 C 254.453125 51.71875 256.667969 52.832031 258.851562 54 C 261.035156 55.164062 263.191406 56.386719 265.316406 57.660156 C 267.441406 58.933594 269.53125 60.257812 271.59375 61.636719 C 273.652344 63.011719 275.675781 64.4375 277.667969 65.914062 C 279.65625 67.390625 281.609375 68.914062 283.523438 70.484375 C 285.4375 72.054688 287.316406 73.671875 289.148438 75.335938 C 290.984375 77 292.777344 78.707031 294.53125 80.460938 C 296.28125 82.210938 297.992188 84.003906 299.652344 85.839844 C 301.316406 87.675781 302.933594 89.550781 304.507812 91.464844 C 306.078125 93.382812 307.601562 95.335938 309.078125 97.324219 C 310.554688 99.3125 311.980469 101.339844 313.355469 103.398438 C 314.730469 105.457031 316.058594 107.550781 317.332031 109.675781 C 318.605469 111.800781 319.824219 113.953125 320.992188 116.140625 C 322.160156 118.324219 323.273438 120.535156 324.332031 122.777344 C 325.390625 125.015625 326.394531 127.28125 327.34375 129.566406 C 328.292969 131.855469 329.183594 134.167969 330.019531 136.5 C 330.851562 138.832031 331.628906 141.183594 332.347656 143.554688 C 333.066406 145.925781 333.726562 148.3125 334.332031 150.714844 C 334.933594 153.117188 335.476562 155.535156 335.957031 157.964844 C 336.441406 160.394531 336.863281 162.835938 337.226562 165.285156 C 337.589844 167.734375 337.894531 170.191406 338.136719 172.660156 C 338.378906 175.125 338.5625 177.59375 338.683594 180.066406 C 338.804688 182.542969 338.867188 185.019531 338.867188 187.496094 C 338.867188 189.972656 338.804688 192.449219 338.683594 194.921875 C 338.5625 197.398438 338.378906 199.867188 338.136719 202.332031 C 337.894531 204.796875 337.589844 207.253906 337.226562 209.707031 C 336.863281 212.15625 336.441406 214.597656 335.957031 217.027344 C 335.476562 219.457031 334.933594 221.871094 334.332031 224.277344 C 333.726562 226.679688 333.066406 229.066406 332.347656 231.4375 C 331.628906 233.808594 330.851562 236.160156 330.019531 238.492188 C 329.183594 240.824219 328.292969 243.132812 327.34375 245.421875 C 326.394531 247.710938 325.390625 249.976562 324.332031 252.214844 C 323.273438 254.453125 322.160156 256.667969 320.992188 258.851562 C 319.824219 261.035156 318.605469 263.191406 317.332031 265.316406 C 316.058594 267.441406 314.730469 269.53125 313.355469 271.59375 C 311.980469 273.652344 310.554688 275.675781 309.078125 277.667969 C 307.601562 279.65625 306.078125 281.609375 304.507812 283.523438 C 302.933594 285.4375 301.316406 287.316406 299.652344 289.148438 C 297.992188 290.984375 296.28125 292.777344 294.53125 294.53125 C 292.777344 296.28125 290.984375 297.992188 289.148438 299.652344 C 287.316406 301.316406 285.4375 302.933594 283.523438 304.507812 C 281.609375 306.078125 279.65625 307.601562 277.667969 309.078125 C 275.675781 310.554688 273.652344 311.980469 271.59375 313.355469 C 269.53125 314.730469 267.441406 316.058594 265.316406 317.332031 C 263.191406 318.605469 261.035156 319.824219 258.851562 320.992188 C 256.667969 322.160156 254.453125 323.273438 252.214844 324.332031 C 249.976562 325.390625 247.710938 326.394531 245.421875 327.34375 C 243.132812 328.292969 240.824219 329.183594 238.492188 330.019531 C 236.160156 330.851562 233.808594 331.628906 231.4375 332.347656 C 229.066406 333.066406 226.679688 333.726562 224.277344 334.332031 C 221.871094 334.933594 219.457031 335.476562 217.027344 335.957031 C 214.597656 336.441406 212.15625 336.863281 209.707031 337.226562 C 207.253906 337.589844 204.796875 337.894531 202.332031 338.136719 C 199.867188 338.378906 197.398438 338.5625 194.921875 338.683594 C 192.449219 338.804688 189.972656 338.867188 187.496094 338.867188 Z M 187.496094 55.046875 C 185.328125 55.046875 183.160156 55.097656 180.996094 55.207031 C 178.832031 55.3125 176.671875 55.472656 174.511719 55.683594 C 172.355469 55.894531 170.207031 56.160156 168.0625 56.480469 C 165.917969 56.796875 163.78125 57.167969 161.65625 57.589844 C 159.53125 58.011719 157.414062 58.488281 155.3125 59.015625 C 153.210938 59.542969 151.121094 60.121094 149.046875 60.75 C 146.972656 61.378906 144.914062 62.058594 142.875 62.789062 C 140.832031 63.519531 138.8125 64.296875 136.808594 65.128906 C 134.804688 65.957031 132.824219 66.835938 130.867188 67.761719 C 128.90625 68.6875 126.972656 69.664062 125.058594 70.683594 C 123.148438 71.707031 121.261719 72.773438 119.402344 73.890625 C 117.542969 75.003906 115.710938 76.164062 113.910156 77.367188 C 112.109375 78.570312 110.335938 79.820312 108.59375 81.109375 C 106.855469 82.402344 105.144531 83.734375 103.46875 85.109375 C 101.792969 86.484375 100.152344 87.902344 98.546875 89.355469 C 96.941406 90.8125 95.371094 92.308594 93.839844 93.839844 C 92.308594 95.371094 90.8125 96.941406 89.355469 98.546875 C 87.902344 100.152344 86.484375 101.792969 85.109375 103.46875 C 83.734375 105.144531 82.402344 106.855469 81.109375 108.59375 C 79.820312 110.335938 78.570312 112.109375 77.367188 113.910156 C 76.164062 115.710938 75.003906 117.542969 73.890625 119.402344 C 72.773438 121.261719 71.707031 123.148438 70.683594 125.058594 C 69.664062 126.972656 68.6875 128.90625 67.761719 130.867188 C 66.835938 132.824219 65.957031 134.804688 65.128906 136.808594 C 64.296875 138.8125 63.519531 140.832031 62.789062 142.875 C 62.058594 144.914062 61.378906 146.972656 60.75 149.046875 C 60.121094 151.121094 59.542969 153.210938 59.015625 155.3125 C 58.488281 157.414062 58.011719 159.53125 57.589844 161.65625 C 57.167969 163.78125 56.796875 165.917969 56.480469 168.0625 C 56.160156 170.207031 55.894531 172.355469 55.683594 174.511719 C 55.472656 176.671875 55.3125 178.832031 55.207031 180.996094 C 55.097656 183.160156 55.046875 185.328125 55.046875 187.496094 C 55.046875 189.664062 55.097656 191.828125 55.207031 193.996094 C 55.3125 196.160156 55.472656 198.320312 55.683594 200.476562 C 55.894531 202.636719 56.160156 204.785156 56.480469 206.929688 C 56.796875 209.074219 57.167969 211.210938 57.589844 213.335938 C 58.011719 215.460938 58.488281 217.574219 59.015625 219.679688 C 59.542969 221.78125 60.121094 223.871094 60.75 225.945312 C 61.378906 228.019531 62.058594 230.074219 62.789062 232.117188 C 63.519531 234.15625 64.296875 236.179688 65.128906 238.183594 C 65.957031 240.183594 66.835938 242.164062 67.761719 244.125 C 68.6875 246.085938 69.664062 248.019531 70.683594 249.933594 C 71.707031 251.84375 72.773438 253.730469 73.890625 255.589844 C 75.003906 257.449219 76.164062 259.277344 77.367188 261.082031 C 78.570312 262.882812 79.820312 264.65625 81.109375 266.394531 C 82.402344 268.136719 83.734375 269.84375 85.109375 271.519531 C 86.484375 273.195312 87.902344 274.835938 89.355469 276.441406 C 90.8125 278.050781 92.308594 279.617188 93.839844 281.152344 C 95.371094 282.683594 96.941406 284.179688 98.546875 285.632812 C 100.152344 287.089844 101.792969 288.503906 103.46875 289.878906 C 105.144531 291.253906 106.855469 292.589844 108.59375 293.878906 C 110.335938 295.171875 112.109375 296.417969 113.910156 297.625 C 115.710938 298.828125 117.542969 299.988281 119.402344 301.101562 C 121.261719 302.214844 123.148438 303.285156 125.058594 304.304688 C 126.972656 305.328125 128.90625 306.300781 130.867188 307.230469 C 132.824219 308.15625 134.804688 309.035156 136.808594 309.863281 C 138.8125 310.691406 140.832031 311.472656 142.875 312.203125 C 144.914062 312.933594 146.972656 313.613281 149.046875 314.242188 C 151.121094 314.871094 153.210938 315.449219 155.3125 315.976562 C 157.414062 316.503906 159.53125 316.976562 161.65625 317.398438 C 163.78125 317.824219 165.917969 318.195312 168.0625 318.511719 C 170.207031 318.828125 172.355469 319.09375 174.511719 319.308594 C 176.671875 319.519531 178.832031 319.679688 180.996094 319.785156 C 183.160156 319.890625 185.328125 319.945312 187.496094 319.945312 C 189.664062 319.945312 191.828125 319.890625 193.996094 319.785156 C 196.160156 319.679688 198.320312 319.519531 200.476562 319.308594 C 202.636719 319.09375 204.785156 318.828125 206.929688 318.511719 C 209.074219 318.195312 211.210938 317.824219 213.335938 317.398438 C 215.460938 316.976562 217.574219 316.503906 219.679688 315.976562 C 221.78125 315.449219 223.871094 314.871094 225.945312 314.242188 C 228.019531 313.613281 230.074219 312.933594 232.117188 312.203125 C 234.15625 311.472656 236.179688 310.691406 238.183594 309.863281 C 240.183594 309.035156 242.164062 308.15625 244.125 307.230469 C 246.085938 306.300781 248.019531 305.328125 249.933594 304.304688 C 251.84375 303.285156 253.730469 302.214844 255.589844 301.101562 C 257.449219 299.988281 259.277344 298.828125 261.082031 297.625 C 262.882812 296.417969 264.65625 295.171875 266.394531 293.878906 C 268.136719 292.589844 269.84375 291.253906 271.519531 289.878906 C 273.195312 288.503906 274.835938 287.089844 276.441406 285.632812 C 278.050781 284.179688 279.617188 282.683594 281.152344 281.152344 C 282.683594 279.617188 284.179688 278.050781 285.632812 276.441406 C 287.089844 274.835938 288.503906 273.195312 289.878906 271.519531 C 291.253906 269.84375 292.589844 268.136719 293.878906 266.394531 C 295.171875 264.65625 296.417969 262.882812 297.625 261.082031 C 298.828125 259.277344 299.988281 257.449219 301.101562 255.589844 C 302.214844 253.730469 303.285156 251.84375 304.304688 249.933594 C 305.328125 248.019531 306.300781 246.085938 307.230469 244.125 C 308.15625 242.164062 309.035156 240.183594 309.863281 238.183594 C 310.691406 236.179688 311.472656 234.15625 312.203125 232.117188 C 312.933594 230.074219 313.613281 228.019531 314.242188 225.945312 C 314.871094 223.871094 315.449219 221.78125 315.976562 219.679688 C 316.503906 217.574219 316.976562 215.460938 317.398438 213.335938 C 317.824219 211.210938 318.195312 209.074219 318.511719 206.929688 C 318.828125 204.785156 319.09375 202.636719 319.308594 200.476562 C 319.519531 198.320312 319.679688 196.160156 319.785156 193.996094 C 319.890625 191.828125 319.945312 189.664062 319.945312 187.496094 C 319.945312 185.328125 319.890625 183.160156 319.785156 180.996094 C 319.679688 178.832031 319.519531 176.671875 319.308594 174.511719 C 319.09375 172.355469 318.828125 170.207031 318.511719 168.0625 C 318.195312 165.917969 317.824219 163.78125 317.398438 161.65625 C 316.976562 159.53125 316.503906 157.414062 315.976562 155.3125 C 315.449219 153.210938 314.871094 151.121094 314.242188 149.046875 C 313.613281 146.972656 312.933594 144.914062 312.203125 142.875 C 311.472656 140.832031 310.691406 138.8125 309.863281 136.808594 C 309.035156 134.804688 308.15625 132.824219 307.230469 130.867188 C 306.300781 128.90625 305.328125 126.972656 304.304688 125.058594 C 303.285156 123.148438 302.214844 121.261719 301.101562 119.402344 C 299.988281 117.542969 298.828125 115.710938 297.625 113.910156 C 296.417969 112.109375 295.171875 110.335938 293.878906 108.59375 C 292.589844 106.855469 291.253906 105.144531 289.878906 103.46875 C 288.503906 101.792969 287.089844 100.152344 285.632812 98.546875 C 284.179688 96.941406 282.683594 95.371094 281.152344 93.839844 C 279.617188 92.308594 278.050781 90.8125 276.441406 89.355469 C 274.835938 87.902344 273.195312 86.484375 271.519531 85.109375 C 269.84375 83.734375 268.136719 82.402344 266.394531 81.109375 C 264.65625 79.820312 262.882812 78.570312 261.082031 77.367188 C 259.277344 76.164062 257.449219 75.003906 255.589844 73.890625 C 253.730469 72.773438 251.84375 71.707031 249.933594 70.683594 C 248.019531 69.664062 246.085938 68.6875 244.125 67.761719 C 242.164062 66.835938 240.183594 65.957031 238.183594 65.128906 C 236.179688 64.296875 234.15625 63.519531 232.117188 62.789062 C 230.074219 62.058594 228.019531 61.378906 225.945312 60.75 C 223.871094 60.121094 221.78125 59.542969 219.679688 59.015625 C 217.574219 58.488281 215.460938 58.011719 213.335938 57.589844 C 211.210938 57.167969 209.074219 56.796875 206.929688 56.480469 C 204.785156 56.160156 202.636719 55.894531 200.476562 55.683594 C 198.320312 55.472656 196.160156 55.3125 193.996094 55.207031 C 191.828125 55.097656 189.664062 55.046875 187.496094 55.046875 Z M 187.496094 55.046875 " fill-opacity="1" fill-rule="nonzero"/></g><path fill="#ffffff" d="M 111.808594 168.574219 C 110.300781 168.59375 108.882812 168.246094 107.550781 167.535156 C 107 167.253906 106.480469 166.921875 105.996094 166.539062 C 105.507812 166.15625 105.0625 165.730469 104.660156 165.257812 C 104.257812 164.789062 103.90625 164.285156 103.601562 163.746094 C 103.296875 163.207031 103.050781 162.640625 102.855469 162.054688 C 102.664062 161.464844 102.527344 160.863281 102.453125 160.25 C 102.378906 159.636719 102.363281 159.019531 102.410156 158.402344 C 102.457031 157.785156 102.5625 157.175781 102.726562 156.582031 C 102.890625 155.984375 103.113281 155.410156 103.390625 154.855469 C 103.730469 154.183594 104.089844 153.523438 104.472656 152.875 C 104.855469 152.222656 105.257812 151.585938 105.679688 150.964844 C 106.101562 150.339844 106.542969 149.730469 107.003906 149.132812 C 107.46875 148.539062 107.945312 147.957031 108.445312 147.390625 C 108.941406 146.828125 109.457031 146.277344 109.992188 145.746094 C 110.523438 145.210938 111.074219 144.699219 111.640625 144.199219 C 112.207031 143.703125 112.785156 143.222656 113.382812 142.761719 C 113.980469 142.300781 114.589844 141.859375 115.214844 141.4375 C 115.839844 141.015625 116.476562 140.613281 117.125 140.234375 C 117.773438 139.851562 118.4375 139.492188 119.109375 139.152344 C 119.78125 138.8125 120.464844 138.496094 121.15625 138.199219 C 121.851562 137.902344 122.550781 137.628906 123.261719 137.378906 C 123.972656 137.125 124.691406 136.898438 125.414062 136.691406 C 126.140625 136.484375 126.871094 136.304688 127.605469 136.144531 C 128.34375 135.984375 129.085938 135.847656 129.828125 135.734375 C 130.574219 135.625 131.324219 135.535156 132.074219 135.46875 C 132.824219 135.40625 133.574219 135.363281 134.328125 135.347656 C 135.082031 135.332031 135.835938 135.335938 136.589844 135.367188 C 137.339844 135.398438 138.09375 135.453125 138.84375 135.53125 C 139.589844 135.609375 140.335938 135.714844 141.082031 135.839844 C 141.824219 135.964844 142.5625 136.113281 143.292969 136.289062 C 144.027344 136.460938 144.753906 136.65625 145.476562 136.875 C 146.195312 137.09375 146.910156 137.335938 147.617188 137.601562 C 148.320312 137.867188 149.019531 138.152344 149.707031 138.460938 C 150.394531 138.769531 151.070312 139.097656 151.734375 139.449219 C 152.402344 139.804688 153.058594 140.175781 153.699219 140.570312 C 154.34375 140.960938 154.972656 141.375 155.589844 141.808594 C 156.207031 142.242188 156.808594 142.695312 157.394531 143.164062 C 157.984375 143.636719 158.554688 144.128906 159.113281 144.636719 C 159.667969 145.144531 160.207031 145.667969 160.730469 146.210938 C 161.253906 146.753906 161.757812 147.3125 162.246094 147.886719 C 162.734375 148.460938 163.203125 149.046875 163.65625 149.652344 L 166.683594 153.625 C 167.054688 154.125 167.375 154.652344 167.644531 155.210938 C 167.914062 155.773438 168.125 156.351562 168.277344 156.953125 C 168.433594 157.554688 168.527344 158.167969 168.558594 158.789062 C 168.59375 159.40625 168.566406 160.027344 168.480469 160.640625 C 168.390625 161.253906 168.246094 161.855469 168.039062 162.441406 C 167.832031 163.027344 167.570312 163.589844 167.253906 164.121094 C 166.9375 164.65625 166.570312 165.15625 166.15625 165.617188 C 165.742188 166.082031 165.285156 166.5 164.789062 166.871094 C 164.292969 167.242188 163.765625 167.566406 163.203125 167.832031 C 162.644531 168.101562 162.0625 168.3125 161.460938 168.46875 C 160.859375 168.621094 160.25 168.714844 159.628906 168.75 C 159.007812 168.78125 158.390625 168.757812 157.777344 168.667969 C 157.160156 168.582031 156.558594 168.433594 155.972656 168.226562 C 155.386719 168.019531 154.828125 167.761719 154.292969 167.441406 C 153.757812 167.125 153.261719 166.761719 152.796875 166.347656 C 152.335938 165.933594 151.917969 165.476562 151.542969 164.980469 L 148.515625 161.003906 C 147.679688 159.851562 146.703125 158.824219 145.597656 157.925781 C 144.488281 157.027344 143.28125 156.285156 141.976562 155.707031 C 140.675781 155.125 139.316406 154.722656 137.90625 154.496094 C 136.5 154.273438 135.082031 154.234375 133.664062 154.382812 C 132.226562 154.515625 130.832031 154.828125 129.480469 155.324219 C 128.128906 155.824219 126.859375 156.488281 125.683594 157.316406 C 124.503906 158.148438 123.453125 159.117188 122.527344 160.222656 C 121.601562 161.328125 120.835938 162.535156 120.230469 163.84375 C 119.804688 164.578125 119.289062 165.246094 118.6875 165.84375 C 118.082031 166.441406 117.410156 166.949219 116.667969 167.363281 C 115.929688 167.78125 115.144531 168.089844 114.320312 168.296875 C 113.496094 168.5 112.660156 168.59375 111.808594 168.574219 Z M 111.808594 168.574219 " fill-opacity="1" fill-rule="nonzero"/><path fill="#ffffff" d="M 263.179688 168.574219 C 262.308594 168.570312 261.449219 168.449219 260.609375 168.210938 C 259.769531 167.96875 258.980469 167.621094 258.234375 167.160156 C 257.492188 166.703125 256.828125 166.152344 256.234375 165.507812 C 255.644531 164.863281 255.152344 164.152344 254.761719 163.371094 C 254.152344 162.0625 253.386719 160.855469 252.464844 159.75 C 251.539062 158.644531 250.488281 157.675781 249.308594 156.84375 C 248.128906 156.015625 246.863281 155.351562 245.511719 154.851562 C 244.15625 154.355469 242.761719 154.042969 241.328125 153.910156 C 239.90625 153.761719 238.492188 153.800781 237.082031 154.023438 C 235.671875 154.25 234.316406 154.652344 233.011719 155.234375 C 231.710938 155.8125 230.503906 156.554688 229.394531 157.453125 C 228.285156 158.351562 227.3125 159.378906 226.472656 160.53125 L 223.445312 164.507812 C 223.074219 165.003906 222.65625 165.457031 222.191406 165.875 C 221.730469 166.289062 221.230469 166.652344 220.699219 166.96875 C 220.164062 167.285156 219.601562 167.546875 219.015625 167.753906 C 218.429688 167.960938 217.832031 168.105469 217.214844 168.195312 C 216.601562 168.28125 215.984375 168.308594 215.363281 168.277344 C 214.742188 168.242188 214.132812 168.148438 213.53125 167.996094 C 212.929688 167.839844 212.347656 167.628906 211.785156 167.359375 C 211.226562 167.089844 210.699219 166.769531 210.203125 166.398438 C 209.703125 166.027344 209.25 165.609375 208.832031 165.144531 C 208.417969 164.683594 208.054688 164.183594 207.738281 163.648438 C 207.421875 163.113281 207.160156 162.554688 206.953125 161.96875 C 206.746094 161.382812 206.601562 160.78125 206.511719 160.167969 C 206.425781 159.550781 206.398438 158.933594 206.429688 158.316406 C 206.464844 157.695312 206.558594 157.082031 206.710938 156.480469 C 206.867188 155.878906 207.078125 155.300781 207.347656 154.738281 C 207.617188 154.179688 207.9375 153.648438 208.308594 153.152344 L 211.335938 149.179688 C 211.789062 148.578125 212.257812 147.988281 212.75 147.414062 C 213.238281 146.839844 213.746094 146.285156 214.269531 145.742188 C 214.796875 145.203125 215.335938 144.679688 215.894531 144.171875 C 216.453125 143.664062 217.027344 143.175781 217.617188 142.707031 C 218.207031 142.238281 218.808594 141.785156 219.425781 141.355469 C 220.046875 140.921875 220.675781 140.511719 221.320312 140.117188 C 221.964844 139.726562 222.621094 139.355469 223.289062 139.007812 C 223.957031 138.65625 224.632812 138.328125 225.324219 138.023438 C 226.011719 137.714844 226.707031 137.429688 227.414062 137.167969 C 228.121094 136.90625 228.835938 136.664062 229.558594 136.449219 C 230.28125 136.230469 231.007812 136.039062 231.742188 135.867188 C 232.476562 135.695312 233.214844 135.546875 233.960938 135.425781 C 234.703125 135.300781 235.449219 135.199219 236.199219 135.125 C 236.949219 135.046875 237.703125 134.996094 238.453125 134.96875 C 239.207031 134.9375 239.960938 134.933594 240.714844 134.953125 C 241.46875 134.972656 242.21875 135.015625 242.972656 135.082031 C 243.722656 135.152344 244.46875 135.242188 245.214844 135.355469 C 245.960938 135.472656 246.699219 135.609375 247.4375 135.769531 C 248.171875 135.933594 248.902344 136.117188 249.628906 136.328125 C 250.351562 136.535156 251.070312 136.765625 251.78125 137.019531 C 252.488281 137.273438 253.191406 137.550781 253.882812 137.847656 C 254.574219 138.144531 255.257812 138.464844 255.929688 138.808594 C 256.601562 139.148438 257.261719 139.511719 257.910156 139.894531 C 258.558594 140.28125 259.195312 140.683594 259.816406 141.109375 C 260.441406 141.53125 261.050781 141.976562 261.644531 142.4375 C 262.242188 142.902344 262.820312 143.382812 263.382812 143.882812 C 263.949219 144.382812 264.496094 144.898438 265.027344 145.433594 C 265.558594 145.96875 266.074219 146.519531 266.570312 147.085938 C 267.066406 147.65625 267.542969 148.238281 268.003906 148.835938 C 268.464844 149.433594 268.902344 150.042969 269.324219 150.667969 C 269.746094 151.296875 270.144531 151.933594 270.523438 152.585938 C 270.90625 153.234375 271.261719 153.898438 271.601562 154.574219 C 271.878906 155.125 272.101562 155.699219 272.265625 156.296875 C 272.429688 156.894531 272.535156 157.5 272.582031 158.117188 C 272.628906 158.734375 272.613281 159.351562 272.539062 159.964844 C 272.460938 160.582031 272.328125 161.179688 272.136719 161.769531 C 271.941406 162.359375 271.695312 162.921875 271.390625 163.460938 C 271.085938 164 270.734375 164.503906 270.328125 164.976562 C 269.925781 165.445312 269.480469 165.871094 268.996094 166.253906 C 268.507812 166.636719 267.988281 166.96875 267.4375 167.25 C 266.136719 168.0625 264.714844 168.503906 263.179688 168.574219 Z M 263.179688 168.574219 " fill-opacity="1" fill-rule="nonzero"/><path fill="#ffffff" d="M 187.496094 262.613281 C 184.671875 262.636719 181.859375 262.46875 179.0625 262.109375 C 176.261719 261.753906 173.496094 261.210938 170.769531 260.480469 C 168.042969 259.75 165.378906 258.839844 162.773438 257.746094 C 160.171875 256.65625 157.652344 255.398438 155.21875 253.96875 C 152.785156 252.535156 150.457031 250.949219 148.238281 249.203125 C 146.019531 247.460938 143.925781 245.574219 141.960938 243.546875 C 139.996094 241.519531 138.179688 239.371094 136.503906 237.097656 C 134.828125 234.824219 133.316406 232.449219 131.960938 229.972656 C 131.652344 229.433594 131.394531 228.867188 131.195312 228.277344 C 130.996094 227.6875 130.859375 227.082031 130.777344 226.464844 C 130.699219 225.847656 130.679688 225.226562 130.71875 224.605469 C 130.761719 223.980469 130.863281 223.371094 131.027344 222.769531 C 131.191406 222.167969 131.410156 221.585938 131.6875 221.027344 C 131.964844 220.46875 132.292969 219.945312 132.671875 219.449219 C 133.050781 218.957031 133.476562 218.503906 133.945312 218.09375 C 134.417969 217.683594 134.921875 217.324219 135.460938 217.011719 C 136.003906 216.703125 136.566406 216.449219 137.160156 216.25 C 137.75 216.050781 138.351562 215.910156 138.972656 215.828125 C 139.589844 215.75 140.210938 215.730469 140.832031 215.773438 C 141.453125 215.8125 142.066406 215.917969 142.667969 216.078125 C 143.269531 216.242188 143.847656 216.460938 144.40625 216.738281 C 144.964844 217.015625 145.492188 217.34375 145.984375 217.722656 C 146.480469 218.105469 146.933594 218.527344 147.34375 219 C 147.75 219.46875 148.113281 219.972656 148.421875 220.511719 C 149.382812 222.25 150.457031 223.917969 151.640625 225.511719 C 152.824219 227.105469 154.105469 228.613281 155.492188 230.035156 C 156.875 231.457031 158.347656 232.785156 159.910156 234.007812 C 161.46875 235.234375 163.105469 236.351562 164.816406 237.363281 C 166.527344 238.371094 168.296875 239.261719 170.125 240.03125 C 171.953125 240.804688 173.828125 241.453125 175.742188 241.976562 C 177.65625 242.496094 179.597656 242.890625 181.566406 243.152344 C 183.535156 243.417969 185.511719 243.550781 187.496094 243.550781 C 189.480469 243.550781 191.457031 243.417969 193.425781 243.152344 C 195.394531 242.890625 197.335938 242.496094 199.25 241.976562 C 201.164062 241.453125 203.035156 240.804688 204.867188 240.03125 C 206.695312 239.261719 208.464844 238.371094 210.175781 237.363281 C 211.882812 236.351562 213.519531 235.234375 215.082031 234.007812 C 216.644531 232.785156 218.117188 231.457031 219.5 230.035156 C 220.882812 228.613281 222.167969 227.105469 223.351562 225.511719 C 224.535156 223.917969 225.605469 222.25 226.566406 220.511719 C 226.878906 219.972656 227.238281 219.46875 227.648438 219 C 228.058594 218.527344 228.511719 218.105469 229.003906 217.722656 C 229.5 217.34375 230.023438 217.015625 230.582031 216.738281 C 231.140625 216.460938 231.722656 216.242188 232.324219 216.078125 C 232.925781 215.917969 233.539062 215.8125 234.160156 215.773438 C 234.78125 215.730469 235.402344 215.75 236.019531 215.828125 C 236.636719 215.910156 237.242188 216.050781 237.832031 216.25 C 238.421875 216.449219 238.988281 216.703125 239.53125 217.011719 C 240.070312 217.324219 240.574219 217.683594 241.042969 218.09375 C 241.511719 218.503906 241.9375 218.957031 242.320312 219.449219 C 242.699219 219.945312 243.027344 220.46875 243.304688 221.027344 C 243.582031 221.585938 243.800781 222.167969 243.964844 222.769531 C 244.125 223.371094 244.230469 223.980469 244.269531 224.605469 C 244.3125 225.226562 244.292969 225.847656 244.214844 226.464844 C 244.132812 227.082031 243.992188 227.6875 243.792969 228.277344 C 243.59375 228.867188 243.339844 229.433594 243.03125 229.972656 C 241.675781 232.449219 240.160156 234.824219 238.488281 237.097656 C 236.8125 239.371094 234.992188 241.519531 233.027344 243.546875 C 231.0625 245.574219 228.972656 247.460938 226.753906 249.203125 C 224.53125 250.949219 222.207031 252.535156 219.773438 253.96875 C 217.339844 255.398438 214.820312 256.65625 212.214844 257.75 C 209.613281 258.839844 206.945312 259.75 204.21875 260.480469 C 201.492188 261.210938 198.730469 261.753906 195.929688 262.109375 C 193.128906 262.46875 190.316406 262.636719 187.496094 262.613281 Z M 187.496094 262.613281 " fill-opacity="1" fill-rule="nonzero"/></svg>