<svg xmlns="http://www.w3.org/2000/svg" xmlns:xlink="http://www.w3.org/1999/xlink" width="500" zoomAndPan="magnify" viewBox="0 0 375 374.999991" height="500" preserveAspectRatio="xMidYMid meet" version="1.0"><path fill="#ffffff" d="M 142.636719 140.144531 L 134.234375 140.144531 L 134.234375 131.742188 C 134.234375 130.875 134.148438 130.015625 133.980469 129.167969 C 133.808594 128.316406 133.558594 127.492188 133.226562 126.691406 C 132.894531 125.890625 132.488281 125.128906 132.007812 124.410156 C 131.527344 123.691406 130.980469 123.023438 130.367188 122.410156 C 129.753906 121.796875 129.085938 121.25 128.367188 120.769531 C 127.648438 120.289062 126.886719 119.878906 126.085938 119.546875 C 125.285156 119.214844 124.460938 118.964844 123.609375 118.796875 C 122.761719 118.625 121.902344 118.539062 121.035156 118.539062 L 106.632812 118.539062 C 105.769531 118.539062 104.910156 118.625 104.0625 118.796875 C 103.210938 118.964844 102.386719 119.214844 101.585938 119.546875 C 100.785156 119.878906 100.023438 120.289062 99.304688 120.769531 C 98.585938 121.25 97.917969 121.796875 97.304688 122.410156 C 96.691406 123.023438 96.144531 123.691406 95.664062 124.410156 C 95.183594 125.128906 94.777344 125.890625 94.445312 126.691406 C 94.113281 127.492188 93.863281 128.316406 93.691406 129.167969 C 93.523438 130.015625 93.4375 130.875 93.4375 131.742188 L 93.4375 140.144531 L 85.035156 140.144531 C 84.167969 140.144531 83.308594 140.230469 82.460938 140.398438 C 81.609375 140.570312 80.785156 140.820312 79.984375 141.152344 C 79.1875 141.484375 78.425781 141.890625 77.707031 142.371094 C 76.984375 142.851562 76.320312 143.398438 75.707031 144.011719 C 75.09375 144.625 74.546875 145.292969 74.066406 146.011719 C 73.582031 146.730469 73.175781 147.492188 72.84375 148.292969 C 72.511719 149.09375 72.261719 149.917969 72.09375 150.765625 C 71.921875 151.617188 71.835938 152.476562 71.835938 153.339844 L 71.835938 167.742188 C 71.835938 168.609375 71.921875 169.46875 72.09375 170.316406 C 72.261719 171.167969 72.511719 171.992188 72.84375 172.792969 C 73.175781 173.59375 73.582031 174.351562 74.066406 175.074219 C 74.546875 175.792969 75.09375 176.457031 75.707031 177.070312 C 76.320312 177.683594 76.984375 178.230469 77.707031 178.710938 C 78.425781 179.195312 79.1875 179.601562 79.984375 179.933594 C 80.785156 180.265625 81.609375 180.515625 82.460938 180.683594 C 83.308594 180.855469 84.167969 180.941406 85.035156 180.941406 L 93.4375 180.941406 L 93.4375 189.34375 C 93.4375 190.210938 93.523438 191.066406 93.691406 191.917969 C 93.863281 192.765625 94.113281 193.59375 94.445312 194.390625 C 94.777344 195.191406 95.183594 195.953125 95.664062 196.671875 C 96.148438 197.394531 96.695312 198.058594 97.308594 198.671875 C 97.917969 199.285156 98.585938 199.832031 99.304688 200.3125 C 100.027344 200.792969 100.785156 201.203125 101.585938 201.535156 C 102.386719 201.867188 103.210938 202.117188 104.0625 202.285156 C 104.910156 202.457031 105.769531 202.539062 106.632812 202.542969 L 121.035156 202.542969 C 121.902344 202.539062 122.761719 202.457031 123.609375 202.285156 C 124.460938 202.117188 125.285156 201.867188 126.085938 201.535156 C 126.886719 201.203125 127.644531 200.792969 128.367188 200.3125 C 129.085938 199.832031 129.753906 199.285156 130.367188 198.671875 C 130.976562 198.058594 131.523438 197.394531 132.007812 196.671875 C 132.488281 195.953125 132.894531 195.191406 133.226562 194.390625 C 133.558594 193.59375 133.808594 192.765625 133.980469 191.917969 C 134.148438 191.066406 134.234375 190.210938 134.234375 189.34375 L 134.234375 180.941406 L 142.636719 180.941406 C 143.503906 180.941406 144.363281 180.855469 145.210938 180.683594 C 146.0625 180.515625 146.886719 180.265625 147.6875 179.933594 C 148.488281 179.601562 149.246094 179.195312 149.96875 178.710938 C 150.6875 178.230469 151.355469 177.683594 151.964844 177.070312 C 152.578125 176.457031 153.125 175.792969 153.605469 175.074219 C 154.089844 174.351562 154.496094 173.59375 154.828125 172.792969 C 155.160156 171.992188 155.410156 171.167969 155.582031 170.316406 C 155.75 169.46875 155.835938 168.609375 155.835938 167.742188 L 155.835938 153.339844 C 155.835938 152.476562 155.75 151.617188 155.582031 150.765625 C 155.410156 149.917969 155.160156 149.09375 154.828125 148.292969 C 154.496094 147.492188 154.089844 146.730469 153.605469 146.011719 C 153.125 145.292969 152.578125 144.625 151.964844 144.011719 C 151.355469 143.398438 150.6875 142.851562 149.96875 142.371094 C 149.246094 141.890625 148.488281 141.484375 147.6875 141.152344 C 146.886719 140.820312 146.0625 140.570312 145.210938 140.398438 C 144.363281 140.230469 143.503906 140.144531 142.636719 140.144531 Z M 143.835938 167.742188 C 143.835938 167.902344 143.804688 168.054688 143.746094 168.203125 C 143.683594 168.347656 143.597656 168.476562 143.484375 168.589844 C 143.375 168.703125 143.242188 168.789062 143.097656 168.851562 C 142.949219 168.910156 142.796875 168.941406 142.636719 168.941406 L 128.234375 168.941406 C 127.839844 168.941406 127.453125 168.980469 127.066406 169.058594 C 126.679688 169.132812 126.304688 169.246094 125.9375 169.398438 C 125.574219 169.550781 125.230469 169.734375 124.902344 169.953125 C 124.574219 170.171875 124.269531 170.421875 123.992188 170.699219 C 123.714844 170.976562 123.464844 171.28125 123.246094 171.609375 C 123.027344 171.9375 122.84375 172.28125 122.691406 172.644531 C 122.542969 173.007812 122.425781 173.382812 122.351562 173.769531 C 122.273438 174.15625 122.234375 174.546875 122.234375 174.941406 L 122.234375 189.34375 C 122.234375 189.503906 122.203125 189.65625 122.144531 189.800781 C 122.082031 189.949219 121.996094 190.078125 121.882812 190.191406 C 121.773438 190.304688 121.640625 190.390625 121.496094 190.449219 C 121.347656 190.511719 121.195312 190.542969 121.035156 190.542969 L 106.632812 190.542969 C 106.476562 190.542969 106.324219 190.511719 106.175781 190.449219 C 106.03125 190.390625 105.898438 190.304688 105.789062 190.191406 C 105.675781 190.078125 105.589844 189.949219 105.527344 189.800781 C 105.46875 189.65625 105.4375 189.503906 105.4375 189.34375 L 105.4375 174.941406 C 105.4375 174.546875 105.398438 174.15625 105.320312 173.769531 C 105.246094 173.382812 105.128906 173.007812 104.980469 172.644531 C 104.828125 172.28125 104.644531 171.9375 104.425781 171.609375 C 104.207031 171.28125 103.957031 170.976562 103.679688 170.699219 C 103.402344 170.421875 103.097656 170.171875 102.769531 169.953125 C 102.441406 169.734375 102.097656 169.550781 101.734375 169.398438 C 101.367188 169.246094 100.992188 169.132812 100.605469 169.058594 C 100.21875 168.980469 99.832031 168.941406 99.4375 168.941406 L 85.035156 168.941406 C 84.875 168.941406 84.722656 168.910156 84.574219 168.851562 C 84.429688 168.789062 84.300781 168.703125 84.1875 168.589844 C 84.074219 168.476562 83.988281 168.347656 83.925781 168.203125 C 83.867188 168.054688 83.835938 167.902344 83.835938 167.742188 L 83.835938 153.339844 C 83.835938 153.183594 83.867188 153.027344 83.925781 152.882812 C 83.988281 152.734375 84.074219 152.605469 84.1875 152.492188 C 84.300781 152.382812 84.429688 152.292969 84.574219 152.234375 C 84.722656 152.171875 84.875 152.144531 85.035156 152.144531 L 99.4375 152.144531 C 99.832031 152.144531 100.21875 152.105469 100.605469 152.027344 C 100.992188 151.949219 101.367188 151.835938 101.734375 151.6875 C 102.097656 151.535156 102.441406 151.351562 102.769531 151.132812 C 103.097656 150.914062 103.402344 150.664062 103.679688 150.386719 C 103.957031 150.105469 104.207031 149.804688 104.425781 149.476562 C 104.644531 149.148438 104.828125 148.804688 104.980469 148.4375 C 105.128906 148.074219 105.246094 147.699219 105.320312 147.3125 C 105.398438 146.925781 105.4375 146.535156 105.4375 146.144531 L 105.4375 131.742188 C 105.4375 131.582031 105.464844 131.429688 105.527344 131.28125 C 105.589844 131.132812 105.675781 131.003906 105.785156 130.890625 C 105.898438 130.777344 106.027344 130.691406 106.175781 130.632812 C 106.324219 130.570312 106.476562 130.539062 106.632812 130.539062 L 121.035156 130.539062 C 121.195312 130.539062 121.347656 130.570312 121.496094 130.632812 C 121.644531 130.691406 121.773438 130.777344 121.886719 130.890625 C 121.996094 131.003906 122.082031 131.132812 122.144531 131.28125 C 122.207031 131.429688 122.234375 131.582031 122.234375 131.742188 L 122.234375 146.144531 C 122.234375 146.535156 122.273438 146.925781 122.351562 147.3125 C 122.425781 147.699219 122.542969 148.074219 122.691406 148.4375 C 122.84375 148.804688 123.027344 149.148438 123.246094 149.476562 C 123.464844 149.804688 123.714844 150.105469 123.992188 150.386719 C 124.269531 150.664062 124.574219 150.914062 124.902344 151.132812 C 125.230469 151.351562 125.574219 151.535156 125.9375 151.6875 C 126.304688 151.835938 126.679688 151.949219 127.066406 152.027344 C 127.453125 152.105469 127.839844 152.144531 128.234375 152.144531 L 142.636719 152.144531 C 142.796875 152.144531 142.949219 152.171875 143.097656 152.234375 C 143.242188 152.292969 143.375 152.382812 143.484375 152.492188 C 143.597656 152.605469 143.683594 152.734375 143.746094 152.882812 C 143.804688 153.027344 143.835938 153.183594 143.835938 153.339844 Z M 143.835938 167.742188 " fill-opacity="1" fill-rule="nonzero"/><path fill="#ffffff" d="M 259.640625 175.183594 C 258.988281 175.175781 258.335938 175.199219 257.683594 175.253906 C 257.03125 175.3125 256.382812 175.398438 255.742188 175.519531 C 255.097656 175.636719 254.464844 175.789062 253.835938 175.96875 C 253.207031 176.152344 252.589844 176.363281 251.980469 176.605469 C 251.375 176.847656 250.78125 177.121094 250.199219 177.417969 C 249.617188 177.71875 249.054688 178.046875 248.503906 178.402344 C 247.957031 178.757812 247.425781 179.140625 246.914062 179.546875 C 246.402344 179.957031 245.914062 180.386719 245.445312 180.84375 C 244.976562 181.296875 244.53125 181.773438 244.105469 182.273438 C 243.683594 182.773438 243.289062 183.292969 242.914062 183.828125 C 242.542969 184.367188 242.199219 184.921875 241.882812 185.492188 C 241.566406 186.066406 241.277344 186.652344 241.015625 187.25 C 240.753906 187.851562 240.527344 188.460938 240.324219 189.082031 C 240.125 189.707031 239.957031 190.335938 239.816406 190.976562 C 239.679688 191.613281 239.570312 192.257812 239.496094 192.910156 C 239.421875 193.558594 239.375 194.210938 239.363281 194.863281 C 239.351562 195.515625 239.371094 196.167969 239.425781 196.820312 C 239.476562 197.472656 239.5625 198.121094 239.675781 198.765625 C 239.792969 199.40625 239.9375 200.042969 240.117188 200.671875 C 240.292969 201.304688 240.5 201.921875 240.738281 202.53125 C 240.976562 203.140625 241.246094 203.734375 241.542969 204.316406 C 241.839844 204.902344 242.164062 205.46875 242.515625 206.019531 C 242.867188 206.570312 243.246094 207.101562 243.648438 207.617188 C 244.054688 208.128906 244.484375 208.621094 244.933594 209.09375 C 245.386719 209.566406 245.863281 210.015625 246.359375 210.441406 C 246.855469 210.867188 247.371094 211.265625 247.90625 211.640625 C 248.441406 212.015625 248.992188 212.367188 249.5625 212.6875 C 250.132812 213.007812 250.71875 213.300781 251.316406 213.5625 C 251.914062 213.828125 252.523438 214.0625 253.144531 214.265625 C 253.765625 214.46875 254.394531 214.644531 255.03125 214.785156 C 255.671875 214.929688 256.316406 215.039062 256.964844 215.121094 C 257.613281 215.199219 258.265625 215.246094 258.917969 215.261719 C 285.269531 214.777344 286.277344 176.308594 259.640625 175.183594 Z M 259.152344 203.265625 C 258.628906 203.253906 258.113281 203.191406 257.601562 203.078125 C 257.089844 202.964844 256.59375 202.804688 256.113281 202.59375 C 255.632812 202.382812 255.179688 202.128906 254.746094 201.832031 C 254.316406 201.53125 253.917969 201.195312 253.554688 200.816406 C 253.191406 200.441406 252.867188 200.03125 252.582031 199.589844 C 252.296875 199.152344 252.058594 198.6875 251.863281 198.203125 C 251.671875 197.714844 251.527344 197.214844 251.429688 196.699219 C 251.332031 196.183594 251.289062 195.664062 251.292969 195.140625 C 251.300781 194.617188 251.355469 194.097656 251.460938 193.585938 C 251.570312 193.070312 251.722656 192.574219 251.929688 192.089844 C 252.132812 191.609375 252.382812 191.148438 252.675781 190.714844 C 252.96875 190.28125 253.300781 189.878906 253.671875 189.511719 C 254.046875 189.140625 254.449219 188.8125 254.886719 188.523438 C 255.324219 188.234375 255.78125 187.988281 256.265625 187.789062 C 256.75 187.589844 257.25 187.4375 257.765625 187.335938 C 258.277344 187.230469 258.796875 187.179688 259.320312 187.179688 C 259.84375 187.191406 260.363281 187.253906 260.875 187.367188 C 261.386719 187.480469 261.882812 187.644531 262.359375 187.851562 C 262.839844 188.0625 263.296875 188.316406 263.726562 188.617188 C 264.15625 188.914062 264.550781 189.253906 264.917969 189.628906 C 265.28125 190.007812 265.605469 190.414062 265.890625 190.855469 C 266.171875 191.296875 266.414062 191.757812 266.605469 192.246094 C 266.800781 192.730469 266.945312 193.230469 267.039062 193.746094 C 267.136719 194.261719 267.183594 194.78125 267.175781 195.304688 C 267.171875 195.828125 267.113281 196.347656 267.007812 196.859375 C 266.902344 197.371094 266.746094 197.871094 266.542969 198.351562 C 266.339844 198.835938 266.089844 199.292969 265.796875 199.726562 C 265.503906 200.160156 265.171875 200.5625 264.800781 200.929688 C 264.425781 201.300781 264.023438 201.628906 263.585938 201.921875 C 263.152344 202.210938 262.691406 202.457031 262.207031 202.65625 C 261.722656 202.855469 261.222656 203.007812 260.710938 203.109375 C 260.195312 203.210938 259.679688 203.265625 259.152344 203.265625 Z M 259.152344 203.265625 " fill-opacity="1" fill-rule="nonzero"/><path fill="#ffffff" d="M 225.023438 140.4375 C 198.46875 140.664062 198.007812 180.027344 224.609375 180.402344 C 225.257812 180.398438 225.90625 180.367188 226.550781 180.300781 C 227.195312 180.234375 227.835938 180.136719 228.472656 180.007812 C 229.109375 179.878906 229.734375 179.722656 230.355469 179.53125 C 230.976562 179.34375 231.585938 179.125 232.183594 178.875 C 232.785156 178.628906 233.367188 178.351562 233.941406 178.046875 C 234.511719 177.738281 235.070312 177.40625 235.609375 177.046875 C 236.148438 176.6875 236.667969 176.304688 237.171875 175.894531 C 237.671875 175.480469 238.152344 175.046875 238.613281 174.589844 C 239.074219 174.132812 239.511719 173.65625 239.921875 173.15625 C 240.335938 172.65625 240.726562 172.136719 241.085938 171.601562 C 241.449219 171.0625 241.785156 170.507812 242.09375 169.941406 C 242.402344 169.371094 242.683594 168.785156 242.9375 168.1875 C 243.1875 167.589844 243.410156 166.984375 243.605469 166.363281 C 243.796875 165.746094 243.960938 165.117188 244.089844 164.484375 C 244.222656 163.847656 244.324219 163.207031 244.394531 162.5625 C 244.464844 161.917969 244.5 161.273438 244.507812 160.625 C 244.515625 159.976562 244.492188 159.328125 244.433594 158.683594 C 244.378906 158.035156 244.289062 157.394531 244.171875 156.757812 C 244.050781 156.121094 243.902344 155.488281 243.722656 154.867188 C 243.542969 154.242188 243.332031 153.632812 243.09375 153.027344 C 242.855469 152.425781 242.585938 151.835938 242.289062 151.261719 C 241.992188 150.683594 241.667969 150.125 241.316406 149.578125 C 240.964844 149.035156 240.585938 148.507812 240.183594 148 C 239.78125 147.492188 239.351562 147.003906 238.902344 146.539062 C 238.453125 146.070312 237.980469 145.628906 237.488281 145.207031 C 236.992188 144.785156 236.480469 144.390625 235.949219 144.019531 C 235.417969 143.648438 234.867188 143.304688 234.304688 142.988281 C 233.738281 142.671875 233.15625 142.382812 232.5625 142.121094 C 231.96875 141.859375 231.367188 141.628906 230.75 141.425781 C 230.132812 141.226562 229.507812 141.054688 228.875 140.910156 C 228.242188 140.769531 227.605469 140.660156 226.960938 140.582031 C 226.316406 140.503906 225.671875 140.453125 225.023438 140.4375 Z M 224.429688 168.398438 C 223.914062 168.375 223.40625 168.300781 222.902344 168.179688 C 222.402344 168.054688 221.914062 167.886719 221.445312 167.667969 C 220.976562 167.449219 220.535156 167.191406 220.113281 166.886719 C 219.695312 166.582031 219.3125 166.242188 218.957031 165.863281 C 218.605469 165.484375 218.292969 165.074219 218.019531 164.636719 C 217.75 164.195312 217.519531 163.734375 217.335938 163.25 C 217.152344 162.769531 217.019531 162.269531 216.933594 161.761719 C 216.847656 161.25 216.808594 160.738281 216.820312 160.222656 C 216.835938 159.703125 216.898438 159.191406 217.011719 158.6875 C 217.121094 158.183594 217.28125 157.695312 217.488281 157.222656 C 217.699219 156.746094 217.949219 156.296875 218.242188 155.871094 C 218.539062 155.449219 218.871094 155.054688 219.242188 154.695312 C 219.613281 154.335938 220.015625 154.015625 220.449219 153.730469 C 220.882812 153.449219 221.339844 153.210938 221.816406 153.019531 C 222.296875 152.824219 222.792969 152.679688 223.300781 152.582031 C 223.808594 152.484375 224.320312 152.4375 224.835938 152.4375 C 225.367188 152.441406 225.894531 152.496094 226.414062 152.601562 C 226.933594 152.710938 227.441406 152.867188 227.929688 153.074219 C 228.417969 153.285156 228.882812 153.539062 229.320312 153.839844 C 229.757812 154.136719 230.164062 154.480469 230.53125 154.859375 C 230.902344 155.242188 231.230469 155.65625 231.519531 156.101562 C 231.808594 156.550781 232.046875 157.019531 232.242188 157.515625 C 232.433594 158.011719 232.578125 158.519531 232.667969 159.042969 C 232.761719 159.566406 232.800781 160.09375 232.785156 160.625 C 232.773438 161.15625 232.707031 161.683594 232.589844 162.199219 C 232.472656 162.71875 232.300781 163.21875 232.085938 163.703125 C 231.867188 164.1875 231.601562 164.648438 231.292969 165.078125 C 230.980469 165.511719 230.632812 165.90625 230.242188 166.269531 C 229.855469 166.632812 229.433594 166.953125 228.980469 167.230469 C 228.527344 167.507812 228.050781 167.738281 227.550781 167.921875 C 227.054688 168.101562 226.542969 168.234375 226.015625 168.316406 C 225.492188 168.394531 224.960938 168.425781 224.429688 168.398438 Z M 224.429688 168.398438 " fill-opacity="1" fill-rule="nonzero"/><path fill="#ffffff" d="M 294.203125 140.4375 C 267.691406 141.113281 267.113281 179.777344 293.925781 180.402344 C 320.261719 179.96875 320.277344 141.296875 294.203125 140.4375 Z M 293.734375 168.398438 C 293.210938 168.386719 292.695312 168.320312 292.1875 168.207031 C 291.679688 168.09375 291.1875 167.929688 290.710938 167.71875 C 290.234375 167.507812 289.78125 167.253906 289.355469 166.953125 C 288.929688 166.65625 288.535156 166.316406 288.171875 165.941406 C 287.8125 165.5625 287.492188 165.15625 287.210938 164.714844 C 286.929688 164.277344 286.695312 163.8125 286.507812 163.328125 C 286.316406 162.84375 286.175781 162.34375 286.082031 161.828125 C 285.992188 161.316406 285.949219 160.800781 285.957031 160.277344 C 285.96875 159.757812 286.027344 159.242188 286.136719 158.730469 C 286.25 158.222656 286.40625 157.726562 286.613281 157.25 C 286.820312 156.769531 287.074219 156.316406 287.367188 155.886719 C 287.664062 155.457031 288 155.0625 288.375 154.699219 C 288.746094 154.335938 289.152344 154.011719 289.589844 153.726562 C 290.027344 153.441406 290.488281 153.203125 290.972656 153.011719 C 291.457031 152.816406 291.953125 152.671875 292.46875 152.574219 C 292.980469 152.480469 293.496094 152.433594 294.019531 152.4375 C 294.539062 152.453125 295.054688 152.515625 295.5625 152.628906 C 296.070312 152.746094 296.5625 152.90625 297.042969 153.117188 C 297.519531 153.328125 297.96875 153.585938 298.398438 153.882812 C 298.824219 154.183594 299.21875 154.523438 299.578125 154.898438 C 299.9375 155.273438 300.257812 155.683594 300.539062 156.121094 C 300.820312 156.5625 301.054688 157.023438 301.246094 157.511719 C 301.433594 157.996094 301.578125 158.496094 301.667969 159.007812 C 301.761719 159.523438 301.800781 160.039062 301.792969 160.558594 C 301.785156 161.082031 301.722656 161.597656 301.613281 162.105469 C 301.503906 162.617188 301.34375 163.109375 301.136719 163.589844 C 300.929688 164.066406 300.679688 164.519531 300.382812 164.949219 C 300.085938 165.378906 299.75 165.777344 299.378906 166.140625 C 299.003906 166.503906 298.597656 166.828125 298.160156 167.109375 C 297.722656 167.394531 297.261719 167.632812 296.777344 167.828125 C 296.296875 168.023438 295.796875 168.167969 295.285156 168.261719 C 294.773438 168.359375 294.253906 168.40625 293.734375 168.398438 Z M 293.734375 168.398438 " fill-opacity="1" fill-rule="nonzero"/><path fill="#ffffff" d="M 259.082031 146.019531 C 259.738281 146.019531 260.390625 145.984375 261.042969 145.917969 C 261.691406 145.855469 262.335938 145.757812 262.980469 145.628906 C 263.621094 145.5 264.253906 145.339844 264.878906 145.152344 C 265.503906 144.960938 266.121094 144.742188 266.726562 144.492188 C 267.328125 144.242188 267.921875 143.964844 268.496094 143.65625 C 269.074219 143.351562 269.636719 143.015625 270.179688 142.652344 C 270.726562 142.292969 271.253906 141.90625 271.757812 141.492188 C 272.265625 141.078125 272.753906 140.640625 273.214844 140.183594 C 273.679688 139.722656 274.121094 139.238281 274.539062 138.738281 C 274.957031 138.234375 275.351562 137.710938 275.71875 137.171875 C 276.085938 136.628906 276.425781 136.070312 276.738281 135.496094 C 277.050781 134.921875 277.332031 134.332031 277.589844 133.730469 C 277.84375 133.128906 278.070312 132.515625 278.265625 131.894531 C 278.460938 131.269531 278.628906 130.636719 278.761719 129.996094 C 278.894531 129.355469 279 128.710938 279.070312 128.0625 C 279.140625 127.410156 279.179688 126.757812 279.191406 126.105469 C 279.199219 125.453125 279.175781 124.796875 279.117188 124.148438 C 279.0625 123.496094 278.976562 122.847656 278.859375 122.203125 C 278.738281 121.5625 278.589844 120.925781 278.410156 120.296875 C 278.230469 119.667969 278.019531 119.050781 277.777344 118.441406 C 277.539062 117.832031 277.269531 117.238281 276.972656 116.65625 C 276.671875 116.074219 276.347656 115.507812 275.992188 114.957031 C 275.640625 114.40625 275.261719 113.875 274.855469 113.363281 C 274.449219 112.847656 274.019531 112.355469 273.566406 111.886719 C 273.113281 111.414062 272.640625 110.964844 272.144531 110.539062 C 271.648438 110.113281 271.128906 109.714844 270.59375 109.339844 C 270.058594 108.964844 269.507812 108.617188 268.9375 108.292969 C 268.367188 107.972656 267.785156 107.679688 267.183594 107.414062 C 266.585938 107.148438 265.976562 106.914062 265.355469 106.710938 C 264.734375 106.503906 264.105469 106.332031 263.46875 106.1875 C 262.832031 106.042969 262.1875 105.929688 261.539062 105.847656 C 260.890625 105.765625 260.238281 105.714844 259.585938 105.699219 C 258.929688 105.699219 258.277344 105.734375 257.628906 105.800781 C 256.976562 105.863281 256.332031 105.960938 255.6875 106.089844 C 255.046875 106.21875 254.414062 106.375 253.789062 106.566406 C 253.164062 106.757812 252.546875 106.976562 251.941406 107.226562 C 251.339844 107.476562 250.746094 107.753906 250.171875 108.0625 C 249.59375 108.367188 249.03125 108.703125 248.488281 109.066406 C 247.941406 109.425781 247.417969 109.8125 246.910156 110.226562 C 246.402344 110.640625 245.917969 111.074219 245.453125 111.535156 C 244.988281 111.996094 244.546875 112.476562 244.128906 112.980469 C 243.710938 113.484375 243.316406 114.007812 242.949219 114.546875 C 242.582031 115.089844 242.246094 115.648438 241.929688 116.222656 C 241.617188 116.796875 241.335938 117.382812 241.078125 117.984375 C 240.824219 118.589844 240.597656 119.203125 240.402344 119.824219 C 240.207031 120.449219 240.042969 121.082031 239.90625 121.722656 C 239.773438 122.363281 239.667969 123.007812 239.597656 123.65625 C 239.527344 124.308594 239.488281 124.957031 239.480469 125.613281 C 239.46875 126.265625 239.496094 126.917969 239.550781 127.570312 C 239.605469 128.222656 239.691406 128.871094 239.808594 129.511719 C 239.929688 130.15625 240.078125 130.792969 240.257812 131.421875 C 240.4375 132.050781 240.648438 132.667969 240.890625 133.277344 C 241.128906 133.882812 241.398438 134.480469 241.699219 135.0625 C 241.996094 135.644531 242.320312 136.210938 242.675781 136.761719 C 243.027344 137.308594 243.40625 137.84375 243.8125 138.355469 C 244.21875 138.867188 244.648438 139.359375 245.101562 139.832031 C 245.554688 140.304688 246.027344 140.753906 246.523438 141.179688 C 247.023438 141.605469 247.539062 142.003906 248.074219 142.378906 C 248.609375 142.753906 249.160156 143.101562 249.730469 143.425781 C 250.300781 143.746094 250.886719 144.039062 251.484375 144.304688 C 252.082031 144.566406 252.691406 144.804688 253.3125 145.007812 C 253.933594 145.214844 254.5625 145.386719 255.199219 145.53125 C 255.835938 145.675781 256.480469 145.789062 257.128906 145.871094 C 257.777344 145.953125 258.429688 146 259.082031 146.019531 Z M 253.722656 120.101562 C 254.292969 119.554688 254.929688 119.101562 255.632812 118.746094 C 256.335938 118.386719 257.078125 118.136719 257.855469 117.992188 C 258.628906 117.851562 259.410156 117.820312 260.195312 117.90625 C 260.980469 117.992188 261.738281 118.191406 262.464844 118.496094 C 263.191406 118.804688 263.859375 119.210938 264.46875 119.710938 C 265.078125 120.214844 265.601562 120.792969 266.039062 121.449219 C 266.480469 122.105469 266.816406 122.8125 267.050781 123.566406 C 267.28125 124.320312 267.402344 125.09375 267.410156 125.882812 C 267.390625 126.410156 267.320312 126.929688 267.203125 127.445312 C 267.082031 127.960938 266.917969 128.460938 266.707031 128.945312 C 266.496094 129.429688 266.242188 129.886719 265.941406 130.324219 C 265.644531 130.761719 265.308594 131.167969 264.9375 131.539062 C 264.5625 131.914062 264.15625 132.25 263.722656 132.546875 C 263.285156 132.847656 262.824219 133.101562 262.34375 133.3125 C 261.859375 133.523438 261.359375 133.691406 260.84375 133.808594 C 260.328125 133.929688 259.808594 134 259.28125 134.019531 C 258.480469 134 257.703125 133.867188 256.945312 133.621094 C 256.183594 133.375 255.476562 133.023438 254.820312 132.566406 C 254.164062 132.113281 253.589844 131.570312 253.09375 130.945312 C 252.59375 130.320312 252.199219 129.636719 251.902344 128.898438 C 251.605469 128.15625 251.421875 127.386719 251.351562 126.589844 C 251.28125 125.796875 251.328125 125.007812 251.492188 124.226562 C 251.652344 123.441406 251.921875 122.699219 252.304688 122 C 252.683594 121.296875 253.15625 120.664062 253.722656 120.101562 Z M 253.722656 120.101562 " fill-opacity="1" fill-rule="nonzero"/><path fill="#ffffff" d="M 352.210938 267.09375 C 361.480469 232.511719 356.867188 202.085938 347.015625 160.171875 C 337.203125 117.898438 309.464844 59.515625 254.558594 70.632812 C 228.148438 74.582031 196.726562 88.601562 171.496094 81.402344 C 157.078125 77.765625 142.546875 74.746094 128.226562 71.636719 C 46.460938 53.761719 24.355469 163.992188 21.046875 230.261719 C 19.003906 274.621094 41.609375 311.375 89.308594 285.632812 C 103.777344 277.5 117 267.691406 128.980469 256.203125 C 132.851562 252.382812 137.128906 249.089844 141.816406 246.328125 C 146.503906 243.566406 151.457031 241.417969 156.675781 239.886719 C 188.109375 231.984375 225.007812 232.898438 250.746094 257.480469 C 274.867188 281.800781 333.039062 320.46875 352.210938 267.09375 Z M 306.96875 280.222656 C 270.699219 269.316406 251.757812 230.703125 215.019531 225.976562 C 181.664062 220.730469 146.976562 222.632812 120.839844 247.390625 C 109.605469 258.179688 97.210938 267.398438 83.648438 275.050781 C 0.144531 317.851562 41.109375 147.738281 57.992188 121.308594 C 86.402344 66.402344 118.058594 81.453125 168.539062 93.035156 C 185.4375 98.089844 208.042969 94.308594 227.328125 88.929688 C 258.230469 80.515625 288.148438 73.835938 309.765625 104.382812 C 337.113281 133.472656 375.136719 300.65625 306.964844 280.222656 Z M 306.96875 280.222656 " fill-opacity="1" fill-rule="nonzero"/></svg>