<svg xmlns="http://www.w3.org/2000/svg" xmlns:xlink="http://www.w3.org/1999/xlink" width="500" zoomAndPan="magnify" viewBox="0 0 375 374.999991" height="500" preserveAspectRatio="xMidYMid meet" version="1.0"><path fill="#ffffff" d="M 308.53125 206.152344 C 308.582031 200.152344 308.480469 190.003906 308.347656 184.941406 C 308.347656 180.121094 304.421875 176.199219 299.601562 176.199219 L 263.777344 176.199219 C 263.609375 170.957031 262.691406 165.164062 258.398438 162.179688 C 266.410156 116.832031 265.679688 120.757812 266.5 117.226562 C 267.773438 111.8125 269.351562 105.066406 263.429688 99.667969 C 263.421875 99.660156 263.414062 99.652344 263.402344 99.644531 C 260.074219 96.699219 256.878906 96.457031 252.734375 95.984375 C 252.871094 91.011719 252.304688 85.472656 246.492188 81.808594 C 242.832031 79.515625 239.445312 79.773438 236.441406 79.980469 C 233.363281 80.210938 164.402344 79.800781 164.035156 79.796875 C 155.6875 78.246094 126.15625 72.792969 117.097656 71.160156 C 108.796875 69.734375 100.3125 71.347656 98.511719 79.46875 C 97.734375 79.558594 89.542969 78.734375 84.003906 83.5 C 79.125 87.863281 80.921875 93.074219 80.921875 97.308594 C 80.957031 103.320312 81.453125 169.226562 81.535156 180.152344 C 79.714844 190.867188 68.574219 256.09375 67.84375 259.535156 C 67.066406 263.160156 66.257812 266.910156 69.8125 271.199219 C 73.046875 275.152344 77.726562 276.804688 82.210938 277.742188 C 82.511719 280.070312 83.449219 282.441406 86.109375 284.671875 C 92.636719 290.316406 101.855469 288.695312 108.871094 288.894531 C 121.34375 289.203125 133.539062 289.34375 143.917969 289.433594 C 168.992188 294.25 208.113281 301.558594 212.199219 302.523438 C 218.671875 304.0625 225.0625 305.292969 230.296875 300.90625 C 233.636719 298.164062 234.855469 294.238281 235.597656 290.644531 C 244.980469 290.828125 251.292969 287.074219 252.457031 277.914062 C 298.800781 277.414062 301.226562 277.011719 303.910156 273.648438 C 305.90625 271.179688 305.542969 267.75 305.585938 266.835938 C 305.5625 266.011719 305.203125 221.53125 305.140625 214.855469 C 307.289062 212.605469 308.527344 209.558594 308.53125 206.152344 Z M 302.902344 185.011719 C 303.152344 194.570312 303.085938 207.085938 303.085938 206.140625 C 303.085938 209.203125 301.480469 211.660156 298.78125 212.71875 C 295.121094 214.167969 253.445312 222.882812 253.078125 222.957031 C 253.097656 219.863281 253.039062 220.828125 253.117188 219.835938 C 253.265625 218.054688 253.332031 216.566406 252.152344 215.246094 C 250.820312 213.566406 247.734375 213.671875 245.542969 213.554688 C 243.132812 213.425781 233.898438 212.984375 231.703125 213.980469 C 231.316406 214.429688 229.5 214.417969 228.777344 218.957031 C 228.65625 219.800781 228.550781 221.226562 228.476562 222.925781 C 208.683594 218.707031 184.164062 213.300781 182.023438 213.019531 C 181.203125 212.914062 179.433594 212.6875 178.71875 212.496094 C 178.207031 208.0625 178.84375 188.160156 178.84375 184.941406 C 178.84375 183.125 180.324219 181.640625 182.148438 181.640625 C 222.246094 181.640625 255.953125 181.640625 299.601562 181.640625 C 301.421875 181.640625 302.902344 183.125 302.902344 185.011719 Z M 221.359375 176.199219 C 221.667969 166.441406 224.429688 165.09375 232.589844 165.269531 C 248.917969 165.488281 252.476562 164.507812 255.515625 166.785156 C 257.710938 168.523438 258.230469 172.957031 258.34375 176.199219 Z M 245.171875 282.179688 C 242.046875 285.921875 236.429688 285.152344 231.859375 285.039062 C 227.054688 284.785156 129.140625 283.953125 109.011719 283.449219 C 102.273438 283.285156 94.332031 284.585938 89.636719 280.527344 C 86.902344 278.238281 87.597656 276.304688 87.597656 271.941406 C 87.65625 266.386719 86.445312 110.34375 86.363281 97.289062 C 86.363281 92.605469 85.019531 89.894531 87.59375 87.59375 C 89.691406 85.789062 92.90625 84.914062 97.433594 84.914062 C 116.824219 85.023438 233.019531 85.699219 236.84375 85.414062 C 239.519531 85.222656 241.453125 85.074219 243.59375 86.417969 C 248.757812 89.671875 247.042969 95.40625 247.042969 101.972656 C 247.078125 119.382812 247.117188 140.144531 247.117188 159.820312 C 228.652344 159.976562 216.484375 156.128906 215.917969 176.199219 L 182.148438 176.199219 C 177.324219 176.199219 173.398438 180.121094 173.398438 184.941406 C 173.398438 192.875 172.246094 213.191406 174.121094 215.679688 C 174.890625 216.714844 176.113281 217.316406 177.464844 217.710938 C 176.964844 235.398438 176.476562 249.382812 175.992188 266.863281 C 175.871094 273.023438 177.972656 276.152344 185.152344 276.667969 C 201.28125 277.859375 238.84375 278.113281 246.957031 277.988281 C 246.640625 279.738281 246.074219 281.101562 245.171875 282.179688 Z M 296.023438 271.234375 C 271.746094 273.03125 206.882812 272.8125 185.546875 271.234375 C 181.609375 270.949219 181.367188 270.441406 181.433594 266.988281 C 181.914062 249.875 182.386719 236.261719 182.886719 218.664062 C 245.210938 232.121094 223.714844 227.476562 228.367188 228.484375 C 228.363281 230.757812 228.4375 233.40625 228.757812 234.6875 C 229.570312 238.023438 231.90625 237.964844 233.484375 237.949219 C 243.253906 237.949219 250.117188 239.132812 252.445312 236.265625 L 252.449219 236.269531 C 253.84375 234.507812 253.09375 232.039062 253.078125 231.207031 L 253.078125 228.523438 C 253.441406 228.445312 295.230469 219.695312 299.726562 218.117188 C 299.925781 240.835938 299.914062 242.300781 300.144531 267.355469 C 300.167969 270.472656 299.859375 270.960938 296.023438 271.234375 Z M 296.023438 271.234375 " fill-opacity="1" fill-rule="nonzero"/><path fill="#ffffff" d="M 288.050781 246.679688 L 288.675781 263.375 C 288.730469 264.84375 289.941406 265.992188 291.394531 265.992188 C 291.429688 265.992188 291.464844 265.992188 291.5 265.988281 C 293 265.933594 294.171875 264.671875 294.113281 263.167969 L 293.488281 246.472656 C 293.355469 242.792969 287.917969 243.125 288.050781 246.679688 Z M 288.050781 246.679688 " fill-opacity="1" fill-rule="nonzero"/><path fill="#ffffff" d="M 290.320312 237.398438 C 290.347656 237.398438 290.375 237.398438 290.402344 237.398438 C 291.90625 237.351562 293.085938 236.097656 293.039062 234.59375 L 293 233.542969 C 292.9375 232.039062 291.589844 230.75 290.167969 230.9375 C 288.664062 231 287.496094 232.269531 287.5625 233.769531 L 287.597656 234.761719 C 287.644531 236.238281 288.851562 237.398438 290.320312 237.398438 Z M 290.320312 237.398438 " fill-opacity="1" fill-rule="nonzero"/><path fill="#ffffff" d="M 134.625 122.03125 C 135.34375 120.269531 135.324219 118.378906 135.285156 118.742188 C 135.320312 113.445312 130.761719 108.890625 125.207031 109.839844 C 117.199219 111.238281 114.855469 120.90625 120.785156 125.738281 C 125.402344 129.511719 132.410156 127.449219 134.625 122.03125 Z M 134.625 122.03125 " fill-opacity="1" fill-rule="nonzero"/><path fill="#ffffff" d="M 116.652344 155.480469 C 143.878906 164.285156 168.183594 135.972656 151.527344 109.367188 C 134.59375 82.320312 97.144531 94.265625 95.855469 124.730469 C 95.253906 139.132812 103.414062 151.203125 116.652344 155.480469 Z M 101.296875 124.957031 C 102.347656 99.988281 132.695312 89.550781 146.910156 112.253906 C 153.609375 122.949219 153.433594 136.699219 143.359375 145.230469 C 138.945312 129.195312 115.0625 127.496094 109.566406 145.363281 C 103.226562 139.757812 101.019531 131.554688 101.296875 124.957031 Z M 101.296875 124.957031 " fill-opacity="1" fill-rule="nonzero"/><path fill="#ffffff" d="M 104.082031 196.921875 L 152.632812 195.746094 C 154.136719 195.707031 155.324219 194.457031 155.289062 192.957031 C 155.253906 191.476562 154.039062 190.300781 152.566406 190.300781 C 152.542969 190.300781 152.523438 190.300781 152.5 190.300781 L 103.945312 191.476562 C 102.441406 191.515625 101.253906 192.765625 101.289062 194.265625 C 101.328125 195.746094 102.539062 196.921875 104.011719 196.921875 C 104.035156 196.921875 104.054688 196.921875 104.082031 196.921875 Z M 104.082031 196.921875 " fill-opacity="1" fill-rule="nonzero"/><path fill="#ffffff" d="M 105.238281 219.945312 L 153.789062 218.769531 C 155.292969 218.734375 156.480469 217.488281 156.445312 215.980469 C 156.410156 214.503906 155.199219 213.324219 153.722656 213.324219 C 153.703125 213.324219 153.683594 213.324219 153.65625 213.324219 L 105.109375 214.5 C 103.601562 214.535156 102.414062 215.78125 102.449219 217.285156 C 102.484375 218.765625 103.699219 219.945312 105.171875 219.945312 C 105.191406 219.945312 105.214844 219.945312 105.238281 219.945312 Z M 105.238281 219.945312 " fill-opacity="1" fill-rule="nonzero"/><path fill="#ffffff" d="M 154.878906 236.347656 C 154.859375 236.347656 154.835938 236.347656 154.8125 236.347656 L 106.265625 237.523438 C 104.761719 237.5625 103.574219 238.8125 103.609375 240.3125 C 103.644531 241.792969 104.855469 242.96875 106.332031 242.96875 C 106.351562 242.96875 106.375 242.96875 106.398438 242.96875 L 154.949219 241.792969 C 156.449219 241.753906 157.636719 240.503906 157.601562 239.003906 C 157.566406 237.523438 156.355469 236.347656 154.878906 236.347656 Z M 154.878906 236.347656 " fill-opacity="1" fill-rule="nonzero"/><path fill="#ffffff" d="M 132.4375 259.375 L 107.359375 260.554688 C 105.855469 260.625 104.695312 261.894531 104.769531 263.398438 C 104.835938 264.859375 106.039062 265.992188 107.484375 265.992188 C 107.527344 265.992188 107.570312 265.992188 107.613281 265.988281 L 132.691406 264.8125 C 134.195312 264.742188 135.351562 263.46875 135.28125 261.96875 C 135.214844 260.457031 133.78125 259.273438 132.4375 259.375 Z M 132.4375 259.375 " fill-opacity="1" fill-rule="nonzero"/><path fill="#ffffff" d="M 177.644531 115.597656 L 229.4375 115.597656 C 230.941406 115.597656 232.160156 114.378906 232.160156 112.875 C 232.160156 111.371094 230.941406 110.152344 229.4375 110.152344 L 177.644531 110.152344 C 176.140625 110.152344 174.921875 111.371094 174.921875 112.875 C 174.921875 114.378906 176.140625 115.597656 177.644531 115.597656 Z M 177.644531 115.597656 " fill-opacity="1" fill-rule="nonzero"/><path fill="#ffffff" d="M 205.308594 132.175781 L 178.152344 132.175781 C 176.648438 132.175781 175.429688 133.394531 175.429688 134.898438 C 175.429688 136.398438 176.648438 137.621094 178.152344 137.621094 L 205.308594 137.621094 C 206.808594 137.621094 208.03125 136.398438 208.03125 134.898438 C 208.03125 133.394531 206.808594 132.175781 205.308594 132.175781 Z M 205.308594 132.175781 " fill-opacity="1" fill-rule="nonzero"/></svg>