<svg xmlns="http://www.w3.org/2000/svg" xmlns:xlink="http://www.w3.org/1999/xlink" width="500" zoomAndPan="magnify" viewBox="0 0 375 374.999991" height="500" preserveAspectRatio="xMidYMid meet" version="1.0"><defs><clipPath id="8cd1b48c5a"><path d="M 76 63.484375 L 299 63.484375 L 299 311.734375 L 76 311.734375 Z M 76 63.484375 " clip-rule="nonzero"/></clipPath></defs><g clip-path="url(#8cd1b48c5a)"><path fill="#ffffff" d="M 187.21875 63.484375 C 162.351562 63.484375 142.121094 83.714844 142.121094 108.578125 L 142.121094 119.851562 L 117.949219 119.851562 C 109.5625 119.851562 102.53125 125.867188 101.242188 134.152344 L 76.578125 291.988281 C 74.792969 301.898438 83.203125 311.757812 93.289062 311.511719 C 93.289062 311.511719 281.144531 311.511719 281.144531 311.511719 C 291.214844 311.742188 299.65625 301.917969 297.855469 291.988281 C 297.855469 291.988281 273.199219 134.152344 273.199219 134.152344 C 271.902344 125.867188 264.871094 119.851562 256.484375 119.851562 L 232.3125 119.851562 L 232.3125 108.578125 C 232.3125 83.714844 212.082031 63.484375 187.21875 63.484375 Z M 153.394531 108.578125 C 154.816406 63.878906 219.625 63.894531 221.039062 108.578125 C 221.039062 108.578125 221.039062 119.851562 221.039062 119.851562 L 153.394531 119.851562 Z M 262.054688 135.894531 L 286.714844 293.730469 C 286.96875 295.382812 286.511719 296.996094 285.425781 298.269531 C 284.335938 299.542969 282.820312 300.238281 281.144531 300.238281 L 93.289062 300.238281 C 89.929688 300.320312 87.109375 297.039062 87.71875 293.730469 C 87.71875 293.730469 112.378906 135.894531 112.378906 135.894531 C 112.808594 133.128906 115.152344 131.128906 117.949219 131.128906 L 256.484375 131.128906 C 259.28125 131.128906 261.625 133.128906 262.054688 135.894531 Z M 262.054688 135.894531 " fill-opacity="1" fill-rule="nonzero"/></g><path fill="#ffffff" d="M 189.054688 184.933594 L 187.21875 186.773438 L 185.378906 184.9375 C 169.09375 167.949219 138.828125 180.449219 139.300781 204.023438 C 139.300781 215.128906 144.140625 225.640625 152.570312 232.875 L 183.546875 259.425781 C 185.660156 261.234375 188.773438 261.234375 190.886719 259.425781 L 221.863281 232.875 C 230.292969 225.640625 235.132812 215.128906 235.132812 204.023438 C 235.59375 180.457031 205.351562 167.9375 189.054688 184.933594 Z M 223.859375 204.019531 C 223.859375 211.832031 220.453125 219.226562 214.523438 224.3125 L 187.21875 247.714844 L 159.910156 224.3125 C 153.980469 219.226562 150.578125 211.832031 150.578125 204.019531 C 150.164062 190.382812 168.085938 183.003906 177.410156 192.902344 C 181.023438 196.171875 185.8125 203.816406 191.203125 198.726562 C 191.203125 198.726562 197.027344 192.902344 197.027344 192.902344 C 206.335938 183.011719 224.28125 190.382812 223.859375 204.019531 Z M 223.859375 204.019531 " fill-opacity="1" fill-rule="nonzero"/></svg>